<?xml version="1.0" encoding="utf-8"?>
<!-- Generator: Adobe Illustrator 27.0.1, SVG Export Plug-In . SVG Version: 6.00 Build 0)  -->
<svg version="1.1" id="Camada_1" xmlns="http://www.w3.org/2000/svg" xmlns:xlink="http://www.w3.org/1999/xlink" x="0px" y="0px"
	 viewBox="0 0 783.7 293" style="enable-background:new 0 0 783.7 293;" xml:space="preserve">
<style type="text/css">
	.st0{fill:#8C96A5;}
	.st1{fill:#FFFFFF;}
</style>
<g>
	<path class="st0" d="M32.1,139H3.5V0h28.7L32.1,139L32.1,139z"/>
	<path class="st0" d="M64.1,126.6c-10.1-10.2-15-22.8-15-37.6c0-14.8,4.9-27.4,15-37.4c10.1-10.2,23-15.3,38.9-15.3
		s29.1,5.1,39.1,15.3c10,10.1,15.2,22.6,15.2,37.4s-5.1,27.4-15.2,37.6c-10,10.1-23.2,15.2-39.1,15.2
		C87.1,141.8,74.2,136.6,64.1,126.6z M121.1,70.5c-4.9-5.1-11-7.7-18.1-7.7c-7.1,0-13.1,2.6-18.1,7.7c-4.9,4.9-7.3,11.1-7.3,18.3
		c0,7.5,2.4,13.7,7.3,18.8c4.9,4.9,11,7.5,18.1,7.5s13.1-2.6,18.1-7.5c4.9-5.1,7.5-11.3,7.5-18.8C128.6,81.7,126,75.4,121.1,70.5z"
		/>
	<path class="st0" d="M183.9,126.6c-9.9-9.9-14.8-22.5-14.8-37.8c0-15.4,4.9-27.9,15-37.6c10-9.9,22.8-14.8,38.7-14.8
		c20.6,0,38.9,10.2,47.1,28.5l-22.8,12.2c-5.9-9.5-13.7-14.2-23.8-14.2c-7.5,0-13.5,2.6-18.5,7.5c-4.9,4.9-7.3,11.1-7.3,18.4
		c0,7.5,2.4,13.9,7.1,18.8c4.9,4.9,11,7.3,18.3,7.3c10,0,19.4-5.9,23.6-14.1l23.2,13.7c-8.8,16.3-26.5,26.7-47.5,26.7
		C206.6,141.2,193.8,136.3,183.9,126.6z"/>
	<path class="st0" d="M359.3,38.9h27V139h-27v-10.2c-8.6,8.6-18.8,12.8-30.9,12.8c-14.2,0-26.1-5.1-35.4-15.2
		c-9.3-10.2-13.9-22.8-13.9-38c0-15,4.8-27.4,14.1-37.3c9.3-9.9,21.2-14.8,35.3-14.8c12.1,0,22.3,4.4,30.9,13.1L359.3,38.9
		L359.3,38.9z M314.9,107.8c4.9,5.1,11,7.7,18.5,7.7c7.5,0,13.5-2.6,18.5-7.9c4.9-5.3,7.5-11.5,7.5-18.8c0-7.3-2.6-13.5-7.5-18.6
		c-4.9-5.1-11-7.7-18.5-7.7c-7.5,0-13.5,2.6-18.5,7.7c-4.8,5.1-7.1,11.3-7.1,18.6C307.8,96.3,310.2,102.5,314.9,107.8z"/>
	<path class="st0" d="M658.4,98.6h-73.6c3.5,12.6,12.6,18.8,27.2,18.8c11.3,0,21.7-3.3,31.2-9.7l11.3,19.6
		c-12.2,9.3-26.8,13.9-43.8,13.9c-17.7,0-31.2-5.1-40.7-15.2c-9.3-10.1-14.1-22.5-14.1-37.3c0-15.2,4.9-27.6,14.6-37.4
		c9.7-10.1,22.5-15,38.2-15c14.8,0,26.8,4.6,36.3,13.5s14.2,21.2,14.2,36.7C659.3,90.1,658.9,94.1,658.4,98.6z M584.6,78.2h47.1
		c-2.7-11.5-11.1-18.6-23-18.6C597,59.5,587.7,66.5,584.6,78.2z"/>
	<path class="st0" d="M769.3,51.5c9.7,10.1,14.4,22.5,14.4,37.4c0,15.2-4.8,27.6-14.2,37.6s-21.4,15-35.6,15
		c-12.1,0-22.1-4.6-30-13.7V139h-27.8V0h28.7v48.8c7.9-8.2,17.5-12.4,29-12.4C747.9,36.3,759.8,41.5,769.3,51.5z M747.3,70.3
		c-4.8-5.1-10.8-7.7-18.3-7.7s-13.5,2.6-18.5,7.7c-4.8,4.9-7.1,11.1-7.1,18.4c0,7.5,2.4,13.7,7.1,18.8c4.9,5.1,11,7.7,18.5,7.7
		s13.5-2.6,18.3-7.7s7.1-11.3,7.1-18.8C754.5,81.5,752.1,75.3,747.3,70.3z"/>
	<polygon class="st0" points="456.3,141.2 429.3,141.2 398.6,38.9 425.6,38.9 	"/>
	<polygon class="st0" points="518.9,141.2 491.9,141.2 461.2,38.9 488.2,38.9 	"/>
	<path class="st1" d="M456.6,141.2h-27l30.7-102.3h27L456.6,141.2z M518.8,141.2h-27l30.7-102.3h27L518.8,141.2z"/>
	<path class="st1" d="M50.3,265.2c-26.8,0-46.9-20.1-46.9-47.2c0-26.8,19.7-47.2,46.7-47.2c22.7,0,37.6,14.1,42.1,28.7l-16.3,6.5
		C72.6,194.2,63.4,187,50.7,187c-16.5,0-29,12.4-29,30.9s12.5,30.9,29,30.9c12.9,0,22.5-7.2,25.8-18.7l16.3,6.5
		C88.3,250.9,73.3,265.2,50.3,265.2z"/>
	<path class="st1" d="M356.7,263.1h-18v-52.7c0-13.6-7.9-23.7-21.6-23.5c-13.9,0-22,10.8-22.2,20.3v56h-18.2v-52.7
		c0-13.6-7.9-23.7-21.6-23.5c-13.7,0-22,10.6-22.2,20.3v56h-18.2v-90.5h17.2v11.5c5.7-7.6,15.6-13.6,28.5-13.6
		c15.1,0,24.7,6.2,29.9,16.7c4.8-9.1,15.5-16.7,31.4-16.7c22.5,0,35,15.8,35,36.6L356.7,263.1L356.7,263.1z"/>
	<path class="st1" d="M682.9,263.1h-18.2v-52.5c0-14.9-8.9-23.9-23.4-23.7c-13.6,0-23.5,10-23.7,21.1v55.1h-18.2v-90.5h17.2v11.5
		c6.2-7.9,16.5-13.6,29.9-13.6c22.7,0,36.4,14.6,36.4,36.7L682.9,263.1L682.9,263.1z"/>
	<polygon class="st1" points="748,263.1 736,293.8 718.1,293.8 730.5,263.1 725.3,263.1 691.7,172.6 710.4,172.6 736.6,248.2 
		764.8,172.6 783.7,172.6 	"/>
	<path class="st1" d="M149.8,170.7c-27.8,0-47.6,20.1-47.6,47.2c0,27,19.7,47.2,47.6,47.2c28,0,47.7-20.3,47.7-47.2
		C197.5,190.8,177.7,170.7,149.8,170.7z M149.9,248.8c-17.5,0-29.5-13-29.5-30.9c0-18.2,12-31.1,29.5-31.1
		c17.5,0,29.4,12.9,29.4,31.1C179.3,236,167.3,248.8,149.9,248.8z"/>
	<path class="st1" d="M427.1,170.7c-13.9,0-25.1,6-32.3,16.1v-14.3H378v121.2h18.2v-42.7c7,8.9,17.5,14.1,30.6,14.1
		c25.7,0,44.6-20.3,44.6-47.2S453,170.7,427.1,170.7z M424.5,249c-17.3,0-29.2-12.7-29.2-31.1s12-31.2,29.2-31.2
		c16.7,0,28.8,13.2,28.8,31.2C453.3,235.8,441,249,424.5,249z"/>
	<path class="st1" d="M560.3,172.6v15.3c-6.9-10.3-17.9-16.1-31.9-16.1c-25.8,0-44.6,19.2-44.6,46c0,27.1,18.7,47.4,44.6,47.4
		c14.1,0,25.1-6.4,31.9-16.8v14.8h16.8v-90.5H560.3z M530.6,249c-16.7,0-28.8-13.2-28.8-31.3c0-17.7,12.4-31.1,28.8-31.1
		c17.3,0,29,12.9,29,31.1C559.6,236.1,547.8,249,530.6,249z"/>
</g>
</svg>
